<svg width="59" height="56" viewBox="0 0 59 56" fill="none" xmlns="http://www.w3.org/2000/svg">
<path d="M29.5 27.9312C27.9088 27.9312 26.3533 27.4546 25.0302 26.5617C23.7071 25.6688 22.6759 24.3998 22.067 22.9149C21.458 21.4301 21.2987 19.7963 21.6091 18.22C21.9196 16.6437 22.6858 15.1959 23.811 14.0594C24.9362 12.923 26.3697 12.1491 27.9304 11.8355C29.4911 11.522 31.1087 11.6829 32.5789 12.298C34.049 12.913 35.3055 13.9545 36.1896 15.2908C37.0736 16.6271 37.5455 18.1981 37.5455 19.8053C37.5455 21.9604 36.6978 24.0273 35.189 25.5512C33.6802 27.0751 31.6338 27.9312 29.5 27.9312ZM29.5 17.0967C28.9696 17.0967 28.4511 17.2555 28.0101 17.5532C27.569 17.8508 27.2253 18.2738 27.0223 18.7687C26.8193 19.2637 26.7662 19.8083 26.8697 20.3337C26.9732 20.8591 27.2286 21.3418 27.6037 21.7206C27.9787 22.0994 28.4566 22.3574 28.9768 22.4619C29.497 22.5664 30.0363 22.5128 30.5263 22.3077C31.0163 22.1027 31.4352 21.7556 31.7299 21.3101C32.0245 20.8647 32.1818 20.341 32.1818 19.8053C32.1818 19.0869 31.8993 18.398 31.3963 17.89C30.8934 17.382 30.2113 17.0967 29.5 17.0967ZM27.5959 34.134C27.851 33.8874 28.1517 33.6941 28.4809 33.5651C28.8019 33.4218 29.149 33.3478 29.5 33.3478C29.851 33.3478 30.1981 33.4218 30.5191 33.5651C30.8483 33.6941 31.149 33.8874 31.4041 34.134L37.5455 40.2284C38.0647 40.7528 38.3564 41.464 38.3564 42.2057C38.3564 42.9473 38.0647 43.6586 37.5455 44.183C37.0262 44.7074 36.322 45.002 35.5877 45.002C34.8534 45.002 34.1492 44.7074 33.63 44.183L32.1818 42.5849V52.3089C32.1818 53.0272 31.8993 53.7162 31.3963 54.2242C30.8934 54.7321 30.2113 55.0175 29.5 55.0175C28.7887 55.0175 28.1066 54.7321 27.6037 54.2242C27.1007 53.7162 26.8182 53.0272 26.8182 52.3089V42.5849L25.37 44.183C24.8508 44.7074 24.1466 45.002 23.4123 45.002C22.678 45.002 21.9738 44.7074 21.4545 44.183C20.9353 43.6586 20.6436 42.9473 20.6436 42.2057C20.6436 41.464 20.9353 40.7528 21.4545 40.2284L27.5959 34.134ZM48.2727 19.8053C48.2727 20.341 48.1154 20.8647 47.8208 21.3101C47.5261 21.7556 47.1072 22.1027 46.6172 22.3077C46.1272 22.5128 45.5879 22.5664 45.0677 22.4619C44.5475 22.3574 44.0696 22.0994 43.6946 21.7206C43.3195 21.3418 43.0641 20.8591 42.9606 20.3337C42.8571 19.8083 42.9103 19.2637 43.1132 18.7687C43.3162 18.2738 43.6599 17.8508 44.101 17.5532C44.542 17.2555 45.0605 17.0967 45.5909 17.0967C46.3022 17.0967 46.9843 17.382 47.4872 17.89C47.9902 18.398 48.2727 19.0869 48.2727 19.8053ZM50.9545 38.7657L42.9091 38.7657C42.1978 38.7657 41.5157 38.4803 41.0128 37.9724C40.5098 37.4644 40.2273 36.7755 40.2273 36.0571C40.2273 35.3387 40.5098 34.6498 41.0128 34.1418C41.5157 33.6338 42.1978 33.3484 42.9091 33.3484L50.9545 33.3484C51.6658 33.3484 52.3479 33.0631 52.8509 32.5551C53.3538 32.0471 53.6364 31.3582 53.6364 30.6398L53.6364 8.97078C53.6364 8.2524 53.3538 7.56345 52.8509 7.05548C52.3479 6.54752 51.6658 6.26215 50.9545 6.26215L8.04545 6.26215C7.33419 6.26215 6.65206 6.54752 6.14912 7.05548C5.64618 7.56345 5.36364 8.2524 5.36364 8.97078L5.36364 30.6398C5.36364 31.3582 5.64618 32.0471 6.14912 32.5551C6.65206 33.0631 7.33419 33.3484 8.04545 33.3484H16.0909C16.8022 33.3484 17.4843 33.6338 17.9872 34.1418C18.4902 34.6498 18.7727 35.3387 18.7727 36.0571C18.7727 36.7755 18.4902 37.4644 17.9872 37.9724C17.4843 38.4803 16.8022 38.7657 16.0909 38.7657H8.04545C5.91167 38.7657 3.86527 37.9096 2.35646 36.3857C0.847644 34.8618 0 32.7949 0 30.6398L0 8.97078C0 6.81565 0.847644 4.7488 2.35646 3.2249C3.86527 1.701 5.91167 0.844883 8.04545 0.844883L50.9545 0.844883C53.0883 0.844883 55.1347 1.701 56.6435 3.2249C58.1524 4.7488 59 6.81565 59 8.97078L59 30.6398C59 32.7949 58.1524 34.8618 56.6435 36.3857C55.1347 37.9096 53.0883 38.7657 50.9545 38.7657ZM10.7273 19.8053C10.7273 19.2696 10.8846 18.7459 11.1792 18.3005C11.4739 17.855 11.8928 17.5079 12.3828 17.3028C12.8728 17.0978 13.4121 17.0442 13.9323 17.1487C14.4525 17.2532 14.9304 17.5112 15.3054 17.89C15.6805 18.2688 15.9359 18.7514 16.0394 19.2769C16.1429 19.8023 16.0897 20.3469 15.8868 20.8418C15.6838 21.3368 15.3401 21.7598 14.899 22.0574C14.458 22.3551 13.9395 22.5139 13.4091 22.5139C12.6978 22.5139 12.0157 22.2286 11.5128 21.7206C11.0098 21.2126 10.7273 20.5237 10.7273 19.8053Z" fill="#0B1035" fill-opacity="0.75"/>
</svg>
