<svg width="91" height="91" viewBox="0 0 91 91" fill="none" xmlns="http://www.w3.org/2000/svg">
<path d="M71.9643 4.08594H5.1072C2.291 4.08594 0 6.37693 0 9.19296V48.193C0 51.0092 2.291 53.3002 5.1072 53.3002H11.6071V50.5144H5.1072C3.82715 50.5144 2.78581 49.4731 2.78581 48.193V31.0145H74.2859V35.3787H77.0715V9.19296C77.0715 6.37693 74.7805 4.08594 71.9643 4.08594ZM74.2857 28.2288H2.78563V19.8718H74.2857V28.2288ZM74.2857 17.086H2.78563V9.19296C2.78563 7.91274 3.82698 6.87157 5.10702 6.87157H71.9641C73.2443 6.87157 74.2855 7.91291 74.2855 9.19296V17.086H74.2857Z" fill="#085F63"/>
<path d="M85.892 37.7002H19.0349C16.2187 37.7002 13.9277 39.9912 13.9277 42.8074V81.8075C13.9277 84.6237 16.2187 86.9147 19.0349 86.9147H85.892C88.7082 86.9147 90.9992 84.6237 90.9992 81.8075V42.8074C90.9992 39.9912 88.7082 37.7002 85.892 37.7002ZM88.2136 81.8075C88.2136 83.0877 87.1723 84.1288 85.8922 84.1288H19.0349C17.7549 84.1288 16.7135 83.0875 16.7135 81.8075V42.8074C16.7135 41.5272 17.7549 40.486 19.0349 40.486H85.892C87.1721 40.486 88.2134 41.5273 88.2134 42.8074V81.8075H88.2136Z" fill="#085F63"/>
<path d="M33.149 60.4497H28.1348V64.164H33.149V60.4497Z" fill="#085F63"/>
<path d="M21.3574 55.9927V68.6213H39.9289V55.9927H21.3574ZM37.1433 65.8354H24.1432V58.7783H37.1433V65.8354Z" fill="#085F63"/>
<path d="M82.1789 55.9927H76.6074V58.7783H82.1789V55.9927Z" fill="#085F63"/>
<path d="M72.8921 55.9927H43.1777V58.7783H72.8921V55.9927Z" fill="#085F63"/>
<path d="M63.6063 61.5645H43.1777V64.3501H63.6063V61.5645Z" fill="#085F63"/>
<path d="M79.3919 69.2712C78.3055 69.2712 77.2488 69.5643 76.3267 70.1091C75.4283 69.5777 74.3816 69.2712 73.2642 69.2712C69.9361 69.2712 67.2285 71.979 67.2285 75.3069C67.2285 78.6348 69.9363 81.3426 73.2642 81.3426C74.3816 81.3426 75.4283 81.0364 76.3267 80.5048C77.2488 81.0495 78.3055 81.3426 79.3919 81.3426C82.72 81.3426 85.4276 78.6348 85.4276 75.3069C85.4276 71.979 82.7198 69.2712 79.3919 69.2712ZM73.264 78.557C71.4721 78.557 70.014 77.099 70.014 75.3069C70.014 73.5148 71.4721 72.0569 73.264 72.0569C75.0559 72.0569 76.5141 73.5148 76.5141 75.3069C76.5141 77.099 75.0559 78.557 73.264 78.557ZM79.3919 78.557C79.0654 78.557 78.745 78.5054 78.4382 78.411C78.9848 77.5035 79.2999 76.4414 79.2999 75.3071C79.2999 74.1728 78.9848 73.1107 78.4382 72.2031C78.7448 72.1089 79.0654 72.0572 79.3919 72.0572C81.1839 72.0572 82.642 73.5152 82.642 75.3073C82.642 77.0994 81.1839 78.557 79.3919 78.557Z" fill="#085F63"/>
</svg>
