<svg width="62" height="92" viewBox="0 0 62 92" fill="none" xmlns="http://www.w3.org/2000/svg">
<path d="M60.8108 68.4516H51.3678C51.13 68.4515 50.8984 68.5282 50.7072 68.6702C50.5161 68.8122 50.3754 69.012 50.306 69.2403L49.5256 71.8086C48.9567 71.5883 48.4317 71.2674 47.9758 70.861L46.3918 69.4464C46.3691 69.4262 46.3456 69.4067 46.3214 69.3885C44.6063 68.0872 42.5657 67.2875 40.4256 67.0779C38.2854 66.8682 36.1292 67.2569 34.1956 68.2009L33.5395 68.5191C32.663 68.943 31.7028 69.1637 30.7298 69.1651H26.0609L22.5693 67.2606C21.638 66.7246 20.5696 66.4766 19.4983 66.5475C18.4269 66.6185 17.4003 67.0053 16.5473 67.6594L16.11 67.4229C16.1017 67.4185 16.0935 67.4142 16.0852 67.4101C14.5128 66.6107 12.4817 67.0885 11.2041 68.4258L11.1967 68.4219C10.0788 67.8148 8.77049 67.6637 7.5443 68.0001C6.31811 68.3365 5.26852 69.1344 4.61411 70.2277C4.4682 70.4708 4.42034 70.7607 4.4803 71.038C4.54026 71.3153 4.70352 71.5592 4.93672 71.7199L21.4785 83.1141C21.5218 83.1439 21.5672 83.1706 21.6143 83.1939C24.0604 84.4021 26.8277 84.7937 29.5115 84.3114L39.0732 82.5451C39.0967 82.541 39.1198 82.5358 39.143 82.5301C39.7388 82.3787 40.3696 82.4591 40.9088 82.755L45.3441 85.5679L43.9221 90.2471C43.8716 90.4135 43.8605 90.5896 43.89 90.761C43.9195 90.9325 43.9886 91.0946 44.0918 91.2345C44.195 91.3743 44.3295 91.4879 44.4844 91.5662C44.6393 91.6445 44.8103 91.6853 44.9837 91.6853H58.2571C58.5282 91.6853 58.7899 91.5858 58.9928 91.4055C59.1958 91.2253 59.326 90.9767 59.3588 90.7068L61.9125 69.6999C61.9315 69.5435 61.9172 69.3848 61.8705 69.2343C61.8239 69.0838 61.7459 68.945 61.6417 68.827C61.5376 68.7091 61.4096 68.6146 61.2664 68.5499C61.1232 68.4852 60.9679 68.4518 60.8108 68.4518V68.4516ZM21.47 69.1939L21.4963 69.2087L22.1909 69.5875C21.8234 69.736 21.472 69.9216 21.142 70.1414L18.8708 68.9155C19.2996 68.7774 19.7525 68.731 20.2002 68.7792C20.648 68.8274 21.0807 68.9691 21.4706 69.1954L21.47 69.1939ZM15.0711 69.3895L19.5031 71.7852C19.3197 72.0618 19.1601 72.3536 19.026 72.6574L13.3084 69.565C13.8737 69.2267 14.5522 69.1334 15.0711 69.3909V69.3895ZM42.0671 80.8553C42.0505 80.8445 42.0333 80.8341 42.0159 80.8245C40.9894 80.2462 39.7824 80.0804 38.6387 80.3605L29.1121 82.1199C26.9243 82.5129 24.6686 82.2019 22.6676 81.2314L7.22161 70.5922C7.63764 70.2812 8.13363 70.0961 8.65109 70.0586C9.16855 70.0212 9.68589 70.133 10.1421 70.3808L18.0125 74.6402L18.5305 74.914C18.5305 74.9511 18.5279 74.9865 18.5279 75.0233C18.5279 75.3186 18.6448 75.6018 18.853 75.8106C19.0611 76.0194 19.3434 76.1367 19.6378 76.1367C19.6544 76.1367 19.6712 76.1367 19.6881 76.1356L25.1149 75.8893C26.6802 75.8184 28.2487 75.891 29.8008 76.1065C29.9452 76.1265 30.0921 76.1178 30.2332 76.0809C30.3742 76.044 30.5066 75.9796 30.6228 75.8914C30.7391 75.8032 30.8368 75.6928 30.9106 75.5667C30.9843 75.4405 31.0325 75.3011 31.0525 75.1562C31.0725 75.0114 31.0639 74.864 31.0271 74.7225C30.9903 74.581 30.9261 74.4482 30.8381 74.3316C30.7502 74.215 30.6402 74.1169 30.5145 74.0429C30.3887 73.969 30.2497 73.9206 30.1053 73.9005C28.4191 73.6667 26.7151 73.5878 25.0146 73.6647L20.9417 73.8503C21.1867 73.1337 21.6485 72.5117 22.2627 72.071C22.8769 71.6304 23.613 71.393 24.3681 71.3922H30.7304C32.038 71.3904 33.3285 71.0937 34.5064 70.524L35.1625 70.2058C36.7223 69.4444 38.4612 69.1289 40.188 69.294C41.9149 69.4591 43.563 70.0984 44.9514 71.1416L46.5004 72.5249C47.1961 73.1444 48.0031 73.6252 48.8782 73.9416L46.0159 83.3592L42.0671 80.8553ZM57.2743 89.4584H46.4825L52.1897 70.6784H59.5571L57.2743 89.4584Z" fill="#085F63"/>
<path d="M11.7252 34.8309V32.8492H12.8089C13.4916 32.8497 14.1733 32.9014 14.8483 33.0038L11.6503 37.3785C9.42675 40.4052 8.2877 44.0967 8.41791 47.8543C8.54812 51.6119 9.93997 55.2152 12.3677 58.0797C14.2133 60.2716 16.5138 62.0328 19.1084 63.24C21.703 64.4473 24.5292 65.0714 27.3893 65.0689C30.2494 65.0713 33.0755 64.4471 35.6701 63.2399C38.2647 62.0327 40.5653 60.2716 42.4109 58.0797C44.8386 55.2152 46.2304 51.6119 46.3606 47.8543C46.4908 44.0967 45.3518 40.4052 43.1283 37.3785L39.8998 32.9618C39.8998 32.9346 39.9039 32.9082 39.9039 32.8809C39.9043 32.1436 39.6876 31.4225 39.2808 30.8083C39.7766 30.5146 40.1984 30.1104 40.5136 29.6271C40.8288 29.1437 41.0291 28.5942 41.0988 28.0208C41.1685 27.4475 41.1059 26.8657 40.9158 26.3205C40.7256 25.7753 40.4131 25.2813 40.0023 24.8766C40.7144 24.1621 41.1178 23.1954 41.1256 22.1851C41.1334 21.1748 40.7449 20.2019 40.0439 19.4765C40.4923 19.0373 40.8183 18.488 40.9894 17.8832C41.1605 17.2785 41.1708 16.6393 41.0192 16.0293C40.8676 15.4193 40.5594 14.8597 40.1253 14.4063C39.6911 13.9529 39.1463 13.6215 38.5448 13.445C40.3334 12.4696 41.4264 10.4075 41.4264 7.71911V7.61705C41.4264 7.32175 41.3095 7.03854 41.1014 6.82973C40.8932 6.62092 40.6109 6.50361 40.3165 6.50361H36.7782C37.2558 5.32678 37.8113 4.18327 38.4408 3.08072C38.5868 2.82492 38.6636 2.53528 38.6635 2.24054C38.6634 1.94579 38.5865 1.65619 38.4405 1.40046C38.2944 1.14473 38.0842 0.931757 37.8307 0.782682C37.5773 0.633607 37.2894 0.553608 36.9956 0.55062L22.2675 0.39511C22.0313 0.388918 21.7965 0.432435 21.5781 0.522856C21.3597 0.613277 21.1626 0.748597 20.9995 0.920096C20.7536 1.18627 20.6023 1.5264 20.5688 1.88771C20.5354 2.24902 20.6217 2.61131 20.8145 2.91834L21.5093 4.02454C22.0079 4.82237 22.4566 5.65051 22.8528 6.50417H21.8965C17.9839 6.50417 17.0179 9.41377 16.4989 10.9765C16.4175 11.2442 16.32 11.5067 16.207 11.7626C15.0532 12.4707 14.0013 12.8151 12.9938 12.8151H11.7252V10.4309C11.7252 10.1356 11.6083 9.85238 11.4002 9.64357C11.192 9.43476 10.9097 9.31745 10.6154 9.31745H1.10989C0.815528 9.31745 0.533224 9.43476 0.32508 9.64357C0.116935 9.85238 0 10.1356 0 10.4309V34.8309C0 35.1262 0.116935 35.4094 0.32508 35.6183C0.533224 35.8271 0.815528 35.9444 1.10989 35.9444H10.6154C10.9097 35.9444 11.192 35.8271 11.4002 35.6183C11.6083 35.4094 11.7252 35.1262 11.7252 34.8309ZM41.338 38.6955C43.2654 41.3192 44.2527 44.5192 44.1398 47.7765C44.0269 51.0338 42.8205 54.1573 40.7161 56.6404C39.0773 58.5834 37.036 60.1447 34.7343 61.2156C32.4327 62.2865 29.9261 62.8413 27.3889 62.8413C24.8518 62.8413 22.3451 62.2865 20.0435 61.2156C17.7419 60.1447 15.7006 58.5834 14.0617 56.6404C11.9574 54.1573 10.7509 51.0338 10.638 47.7765C10.5252 44.5192 11.5126 41.3192 13.44 38.6955L17.1855 33.5716C18.1295 33.8914 19.0358 34.3135 19.8885 34.8306C17.1569 37.1447 17.3159 40.7351 17.8731 42.5051C17.9629 42.7853 18.1596 43.0184 18.4202 43.1535C18.6808 43.2886 18.9842 43.3147 19.2639 43.2261C19.5436 43.1375 19.777 42.9414 19.9131 42.6806C20.0491 42.4199 20.0767 42.1157 19.9898 41.8346C19.7901 41.0808 19.7266 40.2972 19.8025 39.5209C19.8596 38.763 20.1125 38.0332 20.5363 37.4031C20.9601 36.7731 21.5401 36.2647 22.2192 35.9279C24.1871 36.5744 26.2763 36.6471 28.4126 36.6471H30.9988L31.263 37.1254C32.2543 38.9176 32.7092 40.9587 32.573 43.0038L32.5507 43.3447C32.541 43.4906 32.5602 43.6369 32.6069 43.7754C32.6537 43.9139 32.7272 44.0418 32.8232 44.1518C32.9193 44.2618 33.036 44.3517 33.1666 44.4165C33.2973 44.4812 33.4394 44.5195 33.5849 44.5292C33.6097 44.5308 33.6345 44.5316 33.6589 44.5316C33.9403 44.5313 34.211 44.4238 34.4164 44.2309C34.6218 44.038 34.7465 43.774 34.7653 43.4924L34.7878 43.1515C34.9336 40.9555 34.5156 38.7588 33.5738 36.7711C34.2147 37.0161 36.1574 38.0772 36.5254 41.9972C36.5512 42.273 36.6786 42.5293 36.8828 42.7159C37.0869 42.9025 37.353 43.006 37.6291 43.0064C37.6639 43.0064 37.6992 43.0047 37.7346 43.0013C38.0276 42.9737 38.2977 42.8303 38.4854 42.6028C38.6732 42.3754 38.7631 42.0824 38.7355 41.7884C38.5024 39.3064 37.7335 37.6635 36.8672 36.577C37.6634 36.4194 38.3874 36.0074 38.9309 35.4027L41.338 38.6955ZM39.1306 8.73049C38.9344 10.028 38.2573 11.8383 36.0087 11.8383H35.2007C35.4028 10.7884 35.6634 9.75081 35.9815 8.7303H39.1306V8.73049ZM24.156 2.64147C24.1965 2.66505 24.2385 2.68607 24.2816 2.70438C26.0326 3.43257 27.4402 5.70843 27.1858 7.39455C27.1589 7.55433 27.1671 7.71808 27.2097 7.87436C27.2524 8.03065 27.3286 8.17571 27.433 8.2994C27.5373 8.4231 27.6673 8.52246 27.8139 8.59053C27.9605 8.65861 28.1201 8.69377 28.2816 8.69356C28.546 8.69321 28.8016 8.59822 29.0023 8.42567C29.2031 8.25312 29.3359 8.01435 29.3767 7.75233C29.642 6.05471 28.9831 4.14795 27.7859 2.67933L31.2941 2.71644C30.9202 3.80668 30.5924 5.33172 30.8762 6.91206C30.9223 7.16886 31.0568 7.40126 31.2563 7.56871C31.4557 7.73616 31.7075 7.82801 31.9676 7.82823C32.0781 7.82811 32.188 7.81167 32.2937 7.77943C32.5556 7.69252 32.7771 7.51322 32.9172 7.27483C33.0573 7.03643 33.1063 6.75514 33.0553 6.4832C32.8004 4.99583 33.3316 3.4977 33.6683 2.74149L36.0762 2.76692C34.4415 5.8325 33.3388 9.15488 32.8155 12.5917L32.6936 13.3865L27.9304 13.4752C27.8133 13.465 27.6995 13.4312 27.5957 13.3759C27.4919 13.3206 27.4003 13.245 27.3262 13.1534C26.6583 9.41596 25.2768 5.84315 23.2577 2.63145L24.156 2.64147ZM11.7252 15.0418H12.9938C14.4552 15.0418 15.9215 14.5684 17.4741 13.5944C18.0995 13.2022 18.3337 12.4967 18.6051 11.6798C19.1785 9.95286 19.7501 8.7303 21.8965 8.7303H23.7722C24.1693 9.82518 24.5025 10.9466 24.7905 12.0821V12.5767C24.7905 12.617 24.7927 12.6574 24.7971 12.6975C24.9773 14.3543 26.3865 15.7023 27.9383 15.7023H27.9589L37.5409 15.5238C37.9054 15.5249 38.2545 15.6713 38.5115 15.9307C38.7684 16.1902 38.9121 16.5413 38.9109 16.907C38.9097 17.2727 38.7638 17.6229 38.5052 17.8807C38.2466 18.1384 37.8965 18.2825 37.532 18.2814L33.6206 18.2934C33.3262 18.2934 33.0439 18.4107 32.8358 18.6195C32.6276 18.8284 32.5107 19.1116 32.5107 19.4069C32.5107 19.7022 32.6276 19.9854 32.8358 20.1942C33.0439 20.403 33.3262 20.5203 33.6206 20.5203H37.278C37.7099 20.5203 38.1241 20.6924 38.4294 20.9987C38.7348 21.3051 38.9063 21.7206 38.9063 22.1538C38.9063 22.587 38.7348 23.0025 38.4294 23.3089C38.1241 23.6152 37.7099 23.7873 37.278 23.7873H33.6215C33.3272 23.7873 33.0448 23.9046 32.8367 24.1134C32.6286 24.3222 32.5116 24.6054 32.5116 24.9007C32.5116 25.1961 32.6286 25.4793 32.8367 25.6881C33.0448 25.8969 33.3272 26.0142 33.6215 26.0142H37.3609C37.7679 26.0187 38.1567 26.184 38.4429 26.4743C38.7292 26.7646 38.8897 27.1564 38.8897 27.5647C38.8897 27.9731 38.7292 28.3649 38.4429 28.6552C38.1567 28.9455 37.7679 29.1108 37.3609 29.1153H31.9687C31.6743 29.1153 31.392 29.2326 31.1839 29.4414C30.9757 29.6502 30.8588 29.9334 30.8588 30.2287C30.8588 30.524 30.9757 30.8072 31.1839 31.0161C31.392 31.2249 31.6743 31.3422 31.9687 31.3422H36.1493C36.5533 31.3466 36.9393 31.5107 37.2234 31.7989C37.5075 32.0871 37.6669 32.4761 37.6669 32.8814C37.6669 33.2867 37.5075 33.6757 37.2234 33.9639C36.9393 34.2521 36.5533 34.4162 36.1493 34.4206H28.4126C25.6952 34.4206 23.2766 34.3152 21.1957 33.0201C18.6776 31.4522 15.7726 30.6216 12.8089 30.6223H11.7252V15.0418ZM9.50546 33.7175H2.21978V11.5443H9.50546V33.7175Z" fill="#085F63"/>
<path d="M27.9393 48.01C28.3111 48.0104 28.6676 48.1587 28.9306 48.4225C29.1935 48.6862 29.3414 49.0438 29.3418 49.4169C29.3418 49.7122 29.4587 49.9954 29.6669 50.2042C29.875 50.413 30.1573 50.5303 30.4517 50.5303C30.746 50.5303 31.0284 50.413 31.2365 50.2042C31.4446 49.9954 31.5616 49.7122 31.5616 49.4169C31.5603 48.6484 31.3165 47.9 30.8652 47.279C30.4139 46.6581 29.7781 46.1964 29.0492 45.9602V45.5126C29.0492 45.2173 28.9322 44.9341 28.7241 44.7253C28.5159 44.5165 28.2336 44.3992 27.9393 44.3992C27.6449 44.3992 27.3626 44.5165 27.1545 44.7253C26.9463 44.9341 26.8294 45.2173 26.8294 45.5126V45.9602C26.0075 46.2254 25.3071 46.7763 24.8544 47.5138C24.4018 48.2512 24.2266 49.1267 24.3605 49.9822C24.4944 50.8378 24.9286 51.6173 25.5848 52.1801C26.241 52.7429 27.076 53.052 27.9393 53.0517C28.1234 53.0505 28.3059 53.0856 28.4765 53.1552C28.647 53.2248 28.8023 53.3273 28.9333 53.4571C29.0644 53.5868 29.1687 53.7412 29.2402 53.9113C29.3118 54.0815 29.3493 54.2642 29.3505 54.4489C29.3517 54.6336 29.3166 54.8167 29.2473 54.9878C29.178 55.1589 29.0757 55.3146 28.9464 55.4461C28.8171 55.5776 28.6632 55.6822 28.4936 55.754C28.3239 55.8258 28.1419 55.8634 27.9578 55.8646C27.9517 55.8646 27.9459 55.8646 27.9393 55.8646C27.9326 55.8646 27.9276 55.8646 27.9208 55.8646C27.5522 55.8596 27.2003 55.7093 26.9413 55.4462C26.6822 55.1831 26.5367 54.8283 26.5362 54.4585C26.5362 54.1632 26.4193 53.88 26.2111 53.6712C26.003 53.4624 25.7207 53.3451 25.4263 53.3451C25.1319 53.3451 24.8496 53.4624 24.6415 53.6712C24.4333 53.88 24.3164 54.1632 24.3164 54.4585C24.3175 55.2272 24.5612 55.9757 25.0125 56.5969C25.4638 57.2181 26.0996 57.68 26.8286 57.9163V58.4784C26.8286 58.7737 26.9456 59.0569 27.1537 59.2657C27.3619 59.4745 27.6442 59.5918 27.9385 59.5918C28.2329 59.5918 28.5152 59.4745 28.7233 59.2657C28.9315 59.0569 29.0484 58.7737 29.0484 58.4784V57.9163C29.8703 57.6512 30.5707 57.1002 31.0234 56.3627C31.476 55.6253 31.6512 54.7498 31.5173 53.8943C31.3834 53.0387 30.9492 52.2592 30.293 51.6964C29.6368 51.1336 28.8018 50.8245 27.9385 50.8248C27.5694 50.8206 27.2168 50.6705 26.9572 50.4071C26.6977 50.1437 26.5521 49.7883 26.5521 49.4179C26.5521 49.0475 26.6977 48.6921 26.9572 48.4287C27.2168 48.1653 27.5694 48.0152 27.9385 48.011L27.9393 48.01Z" fill="#085F63"/>
</svg>
