<svg width="91" height="80" viewBox="0 0 91 80" fill="none" xmlns="http://www.w3.org/2000/svg">
<path d="M7.29055 33.9642C7.76417 34.1537 8.31345 34.1537 8.78708 33.9264L23.5814 27.2017C24.5285 26.7471 24.9263 25.6105 24.4717 24.6634C24.036 23.7542 22.9563 23.3374 22.028 23.7542L11.6663 28.4709C16.6104 13.6766 30.3818 3.78849 46.2368 3.78849C62.8497 3.78849 77.3787 14.889 81.565 30.7819C81.8301 31.7858 82.872 32.3921 83.8759 32.1267C84.8798 31.8616 85.4861 30.8197 85.2208 29.8158C80.5987 12.2749 64.5732 0 46.2367 0C28.7526 0 13.5415 10.911 8.04814 27.2397L3.69137 16.3477C3.3694 15.3626 2.28967 14.8133 1.30459 15.1353C0.319506 15.4573 -0.229774 16.537 0.0921936 17.5221C0.111195 17.5979 0.149022 17.6736 0.186848 17.7494L6.22964 32.9035C6.41912 33.3771 6.79792 33.7749 7.29055 33.9642Z" fill="#085F63"/>
<path d="M90.8844 61.9239C90.8654 61.8861 90.8466 61.8481 90.8466 61.8102L84.8038 46.6561C84.6143 46.1825 84.2355 45.7847 83.743 45.5954C83.2694 45.4059 82.7201 45.4249 82.2465 45.6332L67.4522 52.3579C66.4861 52.7557 66.0315 53.8733 66.4293 54.8394C66.8271 55.8054 67.9446 56.2601 68.9107 55.8623C68.9485 55.8433 68.9865 55.8244 69.0244 55.8054L79.3861 51.0887C74.4042 65.883 60.6138 75.7711 44.7777 75.7711C28.1649 75.7711 13.6359 64.6706 9.44963 48.7778C9.18449 47.7738 8.14258 47.1676 7.13868 47.4329C6.13477 47.698 5.52849 48.7399 5.7938 49.7438C10.3969 67.3037 26.4414 79.5596 44.7779 79.5596C62.262 79.5596 77.4541 68.6486 82.9665 52.3199L87.3232 63.2119C87.6832 64.197 88.7629 64.7085 89.7478 64.3485C90.7327 63.9887 91.2442 62.909 90.8844 61.9239Z" fill="#085F63"/>
</svg>
