<svg width="59" height="60" viewBox="0 0 59 60" fill="none" xmlns="http://www.w3.org/2000/svg">
<path d="M29.5 59.0303L22.125 48.1205H25.8125V40.8473H33.1875V48.1205H36.875L29.5 59.0303Z" fill="#0B1035" fill-opacity="0.75"/>
<path d="M55.3125 4.48147V33.5742H3.6875V4.48147H55.3125ZM59 0.844879H0V37.2108H59V0.844879Z" fill="#0B1035" fill-opacity="0.75"/>
<path d="M29.5 8.11806C32.434 8.11806 35.2477 9.26748 37.3224 11.3135C39.397 13.3594 40.5625 16.1344 40.5625 19.0278C40.5625 21.9213 39.397 24.6962 37.3224 26.7422C35.2477 28.7882 32.434 29.9376 29.5 29.9376H47.9375V26.301H51.625V11.7546H47.9375V8.11806H29.5Z" fill="#0B1035" fill-opacity="0.75"/>
<path d="M18.4375 19.0278C18.4375 16.1344 19.603 13.3594 21.6776 11.3135C23.7523 9.26748 26.566 8.11806 29.5 8.11806H11.0625V11.7546H7.375V26.301H11.0625V29.9376H29.5C26.566 29.9376 23.7523 28.7882 21.6776 26.7422C19.603 24.6962 18.4375 21.9213 18.4375 19.0278Z" fill="#0B1035" fill-opacity="0.75"/>
</svg>
