<svg width="59" height="59" viewBox="0 0 59 59" fill="none" xmlns="http://www.w3.org/2000/svg">
<path d="M15.9039 42.0029C11.546 42.1838 11.5493 48.392 15.9039 48.5713H24.8922C29.2501 48.3904 29.2468 42.1822 24.8922 42.0029H15.9039ZM26.4479 45.2871C26.4479 46.1449 25.75 46.8428 24.8922 46.8428H15.9039C13.8396 46.7572 13.8412 43.8163 15.9039 43.7314H24.8922C25.75 43.7314 26.4479 44.4293 26.4479 45.2871Z" fill="black"/>
<path d="M53.2818 9.16113H48.8824C47.738 9.20077 47.7389 10.8505 48.8824 10.8896H53.2818C54.0526 10.8896 54.6797 11.5166 54.6797 12.2876V35.4195C54.6797 36.1903 54.0527 36.8174 53.2818 36.8174H13.5561C12.7853 36.8174 12.1582 36.1904 12.1582 35.4195V34.2622H21.4346C26.5571 34.0495 26.5532 26.7522 21.4346 26.5415H12.1582V12.2876C12.1582 11.5168 12.7852 10.8896 13.5561 10.8896H44.8198C45.9642 10.85 45.9632 9.20031 44.8198 9.16113H38.2012V5.47363C38.2012 2.45553 35.7456 0 32.7275 0H8.06738C5.04928 0 2.59375 2.45553 2.59375 5.47363V10.4332C2.63339 11.5776 4.28309 11.5767 4.32227 10.4332V5.47363C4.32227 3.40852 6.00227 1.72852 8.06738 1.72852H32.7275C34.7927 1.72852 36.4727 3.40852 36.4727 5.47363V9.16113H35.2051V5.47363C35.2051 4.10753 34.0936 2.99609 32.7275 2.99609H28.1066C27.4696 2.99609 26.9019 3.40045 26.6935 4.00336L26.1398 5.61422H14.6549L14.1007 4.0022C13.8928 3.40045 13.3252 2.99621 12.6881 2.99621H8.06738C6.70128 2.99621 5.58984 4.10764 5.58984 5.47375V53.5265C5.58984 54.8926 6.70128 56.004 8.06738 56.004H32.7275C34.0936 56.004 35.2051 54.8926 35.2051 53.5265V50.8242C35.1654 49.6798 33.5157 49.6808 33.4766 50.8242V53.5265C33.4766 53.9395 33.1405 54.2755 32.7275 54.2755H8.06738C7.65438 54.2755 7.31836 53.9395 7.31836 53.5265V5.47375C7.31836 5.06075 7.65438 4.72472 8.06738 4.72472H12.5214L13.0756 6.33662C13.2834 6.93849 13.851 7.34273 14.4882 7.34273H26.3067C26.9438 7.34273 27.5116 6.93838 27.7198 6.33547L28.2735 4.72461H32.7275C33.1405 4.72461 33.4766 5.06063 33.4766 5.47363V9.16113H13.5561C11.8322 9.16113 10.4297 10.5637 10.4297 12.2876V35.4195C10.4297 37.1434 11.8322 38.5459 13.5561 38.5459H33.4766V46.7936C33.5162 47.938 35.1659 47.937 35.2051 46.7936V38.5459H36.4727V53.5264C36.4727 55.5915 34.7927 57.2715 32.7275 57.2715H8.06738C6.00227 57.2715 4.32227 55.5915 4.32227 53.5264V14.5195C4.28262 13.3751 2.63293 13.3761 2.59375 14.5195V53.5264C2.59375 56.5445 5.04928 59 8.06738 59H32.7275C35.7456 59 38.2012 56.5445 38.2012 53.5264V38.5459H53.2818C55.0057 38.5459 56.4082 37.1434 56.4082 35.4195V12.2876C56.4082 10.5637 55.0057 9.16113 53.2818 9.16113ZM21.4346 28.27C24.2635 28.3874 24.2613 32.4173 21.4346 32.5337H12.1582V28.27H21.4346Z" fill="black"/>
<path d="M40.008 34.5421C40.4539 34.7122 40.9534 34.4881 41.1234 34.0421L41.5347 32.9621H44.3627L44.7694 34.0396C44.9374 34.4907 45.4482 34.7107 45.8831 34.543C46.3297 34.3745 46.5551 33.8759 46.3865 33.4292L43.9065 26.8578C43.9036 26.8498 43.9004 26.8419 43.8972 26.8339C43.7399 26.4519 43.3715 26.2052 42.9584 26.2052H42.957C42.5433 26.2057 42.1749 26.4534 42.0184 26.8365C42.0158 26.8429 42.0132 26.8492 42.0108 26.8557L39.508 33.4268C39.3381 33.8728 39.5621 34.3721 40.008 34.5421ZM42.9552 29.2324L43.7104 31.2336H42.193L42.9552 29.2324Z" fill="black"/>
<path d="M47.8999 30.5861L47.8922 33.7322C47.891 34.2096 48.2771 34.5975 48.7543 34.5987H48.7565C49.2328 34.5987 49.6196 34.2131 49.6207 33.7366L49.6284 30.5872L51.6005 27.5577C51.861 27.1576 51.7478 26.6224 51.3478 26.3619C50.9479 26.1013 50.4124 26.2146 50.1521 26.6146L48.7637 28.7473L47.3596 26.5968C47.0983 26.197 46.5632 26.0849 46.1633 26.3456C45.7637 26.6066 45.6512 27.1421 45.9121 27.5418L47.8999 30.5861Z" fill="black"/>
<path d="M34.6193 33.7344C34.659 34.8788 36.3087 34.8779 36.3479 33.7344V31.6989C36.7128 31.6971 37.1082 31.6954 37.3393 31.6954C41.0304 31.544 41.0287 26.3557 37.3393 26.2051H35.4836C35.0183 26.1959 34.6087 26.6069 34.6193 27.072V33.7344ZM37.3393 27.9336C37.9103 27.9336 38.3928 28.3992 38.3928 28.9502C38.3928 29.5013 37.9103 29.9668 37.3393 29.9668C37.1097 29.9668 36.719 29.9684 36.356 29.9703C36.3514 29.1128 36.353 28.8169 36.3504 27.9335H37.3393V27.9336Z" fill="black"/>
<path d="M17.1709 13.6553C16.3131 13.6553 15.6152 14.3531 15.6152 15.2109V19.8203C15.6152 20.6781 16.3131 21.376 17.1709 21.376H24.3154C25.1732 21.376 25.8711 20.6781 25.8711 19.8203V15.2109C25.8711 14.3531 25.1732 13.6553 24.3154 13.6553H17.1709ZM24.1426 19.6475H17.3438V15.3838H24.1426V19.6475Z" fill="black"/>
<path d="M31.5645 16.6017V17.9845C31.6041 19.1289 33.2538 19.128 33.293 17.9845V16.6017C33.2534 15.4573 31.6036 15.4583 31.5645 16.6017Z" fill="black"/>
<path d="M46.6826 18.8488C47.16 18.8488 47.5469 18.462 47.5469 17.9845V16.6017C47.5072 15.4573 45.8575 15.4583 45.8184 16.6017V17.9845C45.8184 18.462 46.2053 18.8488 46.6826 18.8488Z" fill="black"/>
<path d="M50.6289 17.9845V16.6017C50.5893 15.4573 48.9396 15.4583 48.9004 16.6017V17.9845C48.9399 19.1289 50.5897 19.1281 50.6289 17.9845Z" fill="black"/>
<path d="M37.7656 17.9845V16.6017C37.726 15.4573 36.0763 15.4583 36.0371 16.6017V17.9845C36.0766 19.1289 37.7264 19.1281 37.7656 17.9845Z" fill="black"/>
<path d="M40.167 18.8487C40.6444 18.8487 41.0312 18.4619 41.0312 17.9845V16.6017C40.9916 15.4573 39.3419 15.4582 39.3027 16.6017V17.9845C39.3027 18.4619 39.6896 18.8487 40.167 18.8487Z" fill="black"/>
</svg>
