<svg width="40" height="40" viewBox="0 0 40 40" fill="none" xmlns="http://www.w3.org/2000/svg">
<path d="M20 0.0753174C22.4075 0.0753174 24.715 0.499655 26.8526 1.27462L24.4631 3.65331C20.8469 2.67362 17.007 2.91185 13.5407 4.33094C10.0744 5.75004 7.17586 8.27048 5.29581 11.5003C3.41576 14.7302 2.65957 18.4884 3.14482 22.1907C3.63007 25.8929 5.32957 29.3317 7.97905 31.9722C10.6285 34.6128 14.0795 36.3072 17.7953 36.7919C21.5112 37.2766 25.2836 36.5244 28.5261 34.6524C31.7686 32.7804 34.2994 29.8934 35.7249 26.4404C37.1504 22.9874 37.3908 19.1619 36.4087 15.5587L38.7962 13.18C39.5948 15.3661 40.0022 17.6749 40 20.0013C40 31.0062 31.0458 39.9273 20 39.9273C8.95421 39.9273 0 31.0062 0 20.0013C0 8.99638 8.95421 0.0753174 20 0.0753174ZM20 8.0481C21.0131 8.04763 22.0223 8.17481 23.0034 8.42661V11.5484C21.0793 10.8702 18.9809 10.8638 17.0527 11.5304C15.1244 12.1969 13.4809 13.4968 12.3919 15.2166C11.3029 16.9364 10.8331 18.9739 11.0596 20.9948C11.2861 23.0157 12.1955 24.8998 13.6384 26.3379C15.0813 27.7761 16.9721 28.6827 19.0004 28.9091C21.0287 29.1355 23.074 28.6682 24.8006 27.5838C26.5272 26.4995 27.8325 24.8625 28.5022 22.9417C29.1719 21.0209 29.1663 18.9302 28.4863 17.013H31.6197C32.2452 19.4268 32.0976 21.975 31.1975 24.301C30.2975 26.6271 28.69 28.6146 26.6 29.9853C24.51 31.3561 22.0421 32.0415 19.5418 31.9456C17.0415 31.8498 14.6338 30.9775 12.6557 29.4508C10.6776 27.9241 9.22808 25.8195 8.51005 23.4314C7.79201 21.0433 7.84137 18.4913 8.65121 16.1326C9.46105 13.7738 10.9908 11.7264 13.0265 10.2768C15.0622 8.82714 17.5018 8.0479 20.004 8.0481H20ZM23.9992 20.0013C23.9989 20.8577 23.7217 21.6911 23.2087 22.3782C22.6956 23.0653 21.974 23.5694 21.1508 23.8159C20.3276 24.0623 19.4467 24.0379 18.6385 23.7464C17.8303 23.4548 17.1378 22.9116 16.6638 22.1972C16.1898 21.4828 15.9595 20.6353 16.0069 19.7802C16.0543 18.9252 16.377 18.1081 16.9271 17.4501C17.4771 16.792 18.2254 16.3281 19.0609 16.127C19.8964 15.9259 20.7747 15.9984 21.5657 16.3337L25.005 12.9071L25.003 6.55395C25.0033 6.15781 25.1616 5.77802 25.4429 5.49808L30.4419 0.517585C30.6516 0.30889 30.9187 0.166797 31.2095 0.109254C31.5002 0.0517104 31.8016 0.0812972 32.0754 0.194278C32.3493 0.307258 32.5834 0.498564 32.7482 0.744034C32.913 0.989504 33.0011 1.27813 33.0014 1.57345V7.052H38.5003C38.7967 7.05226 39.0864 7.14003 39.3328 7.30422C39.5792 7.46842 39.7712 7.70168 39.8846 7.97454C39.998 8.2474 40.0277 8.54762 39.9699 8.83728C39.9122 9.12694 39.7696 9.39306 39.5601 9.60201L34.5611 14.5825C34.2801 14.8628 33.8989 15.0204 33.5013 15.0208H27.1226L23.6833 18.4474C23.8872 18.9255 23.9992 19.4494 23.9992 20.0013ZM32.8794 12.0325L34.879 10.0403H31.4997C31.1019 10.0403 30.7205 9.88288 30.4392 9.60267C30.158 9.32246 30 8.94242 30 8.54615V5.17933L28.0024 7.17153V11.915C28.0447 11.9517 28.0848 11.991 28.1224 12.0325H32.8814H32.8794Z" fill="#085F63"/>
</svg>
