<svg width="91" height="96" viewBox="0 0 91 96" fill="none" xmlns="http://www.w3.org/2000/svg">
<path d="M33.3668 87.5896H21.2335C20.8312 87.5896 20.4454 87.7499 20.161 88.0353C19.8766 88.3207 19.7168 88.7078 19.7168 89.1114C19.7168 89.515 19.8766 89.902 20.161 90.1874C20.4454 90.4728 20.8312 90.6331 21.2335 90.6331H33.3668C33.769 90.6331 34.1548 90.4728 34.4392 90.1874C34.7237 89.902 34.8835 89.515 34.8835 89.1114C34.8835 88.7078 34.7237 88.3207 34.4392 88.0353C34.1548 87.7499 33.769 87.5896 33.3668 87.5896Z" fill="#085F63"/>
<path d="M85.6917 29.7721H54.6V6.18858C54.5984 4.7767 54.0387 3.4231 53.0435 2.42475C52.0483 1.4264 50.699 0.864842 49.2917 0.863281H5.30833C3.90095 0.864842 2.55166 1.4264 1.55649 2.42475C0.561325 3.4231 0.00155559 4.7767 0 6.18858V89.8719C0.00155559 91.2838 0.561325 92.6374 1.55649 93.6357C2.55166 94.6341 3.90095 95.1956 5.30833 95.1972H49.2917C50.699 95.1956 52.0483 94.6341 53.0435 93.6357C54.0387 92.6374 54.5984 91.2838 54.6 89.8719V67.8099H85.6917C87.099 67.8084 88.4483 67.2468 89.4435 66.2485C90.4387 65.2501 90.9984 63.8965 91 62.4846V35.0974C90.9984 33.6855 90.4387 32.3319 89.4435 31.3335C88.4483 30.3352 87.099 29.7736 85.6917 29.7721ZM34.4568 3.90631L33.6984 6.94934H20.9016L20.1432 3.90631H34.4568ZM51.5667 89.8719C51.5662 90.477 51.3263 91.0572 50.8998 91.4851C50.4732 91.913 49.8949 92.1537 49.2917 92.1542H5.30833C4.70512 92.1537 4.12676 91.913 3.70022 91.4851C3.27368 91.0572 3.03384 90.477 3.03333 89.8719V6.18858C3.03384 5.58344 3.27368 5.00323 3.70022 4.57533C4.12676 4.14743 4.70512 3.90681 5.30833 3.90631H17.0151L18.2455 8.83982C18.3275 9.16899 18.5168 9.4612 18.7834 9.67003C19.05 9.87886 19.3785 9.99232 19.7167 9.99237H34.8833C35.2215 9.99232 35.55 9.87886 35.8166 9.67003C36.0832 9.4612 36.2725 9.16899 36.3545 8.83982L37.5849 3.90631H49.2917C49.8949 3.90681 50.4732 4.14743 50.8998 4.57533C51.3263 5.00323 51.5662 5.58344 51.5667 6.18858V89.8719ZM54.6 52.5948H59.15V58.6808H54.6V52.5948ZM87.9667 62.4846C87.9662 63.0898 87.7263 63.67 87.2998 64.0979C86.8732 64.5258 86.2949 64.7664 85.6917 64.7669H54.6V61.7239H60.6667C61.0689 61.7239 61.4547 61.5636 61.7391 61.2782C62.0235 60.9929 62.1833 60.6059 62.1833 60.2024V51.0733C62.1833 50.6697 62.0235 50.2827 61.7391 49.9974C61.4547 49.7121 61.0689 49.5518 60.6667 49.5518H54.6V44.9872H87.9667V62.4846ZM87.9667 41.9442H54.6V38.9011H87.9667V41.9442ZM87.9667 35.8581H54.6V32.8151H85.6917C86.2949 32.8156 86.8732 33.0562 87.2998 33.4841C87.7263 33.912 87.9662 34.4922 87.9667 35.0974V35.8581Z" fill="#085F63"/>
<path d="M83.4167 49.5518H69.7667C69.3644 49.5518 68.9787 49.7121 68.6942 49.9975C68.4098 50.2829 68.25 50.6699 68.25 51.0735C68.25 51.4771 68.4098 51.8642 68.6942 52.1496C68.9787 52.435 69.3644 52.5953 69.7667 52.5953H83.4167C83.8189 52.5953 84.2047 52.435 84.4891 52.1496C84.7735 51.8642 84.9333 51.4771 84.9333 51.0735C84.9333 50.6699 84.7735 50.2829 84.4891 49.9975C84.2047 49.7121 83.8189 49.5518 83.4167 49.5518Z" fill="#085F63"/>
<path d="M83.4167 54.1162H69.7667C69.3644 54.1162 68.9787 54.2765 68.6942 54.5619C68.4098 54.8473 68.25 55.2344 68.25 55.638C68.25 56.0416 68.4098 56.4286 68.6942 56.714C68.9787 56.9994 69.3644 57.1598 69.7667 57.1598H83.4167C83.8189 57.1598 84.2047 56.9994 84.4891 56.714C84.7735 56.4286 84.9333 56.0416 84.9333 55.638C84.9333 55.2344 84.7735 54.8473 84.4891 54.5619C84.2047 54.2765 83.8189 54.1162 83.4167 54.1162Z" fill="#085F63"/>
<path d="M83.4173 58.6807H77.3507C76.9484 58.6807 76.5626 58.841 76.2782 59.1264C75.9938 59.4118 75.834 59.7988 75.834 60.2024C75.834 60.606 75.9938 60.9931 76.2782 61.2785C76.5626 61.5639 76.9484 61.7242 77.3507 61.7242H83.4173C83.8196 61.7242 84.2053 61.5639 84.4898 61.2785C84.7742 60.9931 84.934 60.606 84.934 60.2024C84.934 59.7988 84.7742 59.4118 84.4898 59.1264C84.2053 58.841 83.8196 58.6807 83.4173 58.6807Z" fill="#085F63"/>
<path d="M27.2996 29.772C23.7 29.772 20.1812 30.8428 17.1882 32.849C14.1953 34.8553 11.8625 37.7068 10.485 41.043C9.1075 44.3793 8.74707 48.0504 9.44933 51.5921C10.1516 55.1339 11.885 58.3872 14.4303 60.9406C16.9756 63.4941 20.2185 65.233 23.749 65.9375C27.2794 66.642 30.9388 66.2804 34.2645 64.8985C37.5901 63.5166 40.4325 61.1764 42.4324 58.1738C44.4322 55.1713 45.4996 51.6413 45.4996 48.0301C45.4942 43.1894 43.575 38.5486 40.163 35.1257C36.751 31.7028 32.1249 29.7774 27.2996 29.772ZM27.2996 63.2453C24.2999 63.2453 21.3676 62.3529 18.8735 60.6811C16.3793 59.0092 14.4354 56.6329 13.2874 53.8527C12.1395 51.0725 11.8392 48.0133 12.4244 45.0618C13.0096 42.1104 14.4541 39.3993 16.5752 37.2714C18.6963 35.1435 21.3987 33.6944 24.3407 33.1074C27.2828 32.5203 30.3323 32.8216 33.1036 33.9732C35.875 35.1248 38.2437 37.0749 39.9102 39.5771C41.5768 42.0792 42.4663 45.0209 42.4663 48.0301C42.4617 52.0641 40.8623 55.9314 38.019 58.7838C35.1757 61.6362 31.3207 63.2407 27.2996 63.2453Z" fill="#085F63"/>
<path d="M35.3268 42.39L25.6402 52.1075L20.6259 48.3347C20.3041 48.0926 19.8996 47.9887 19.5014 48.0457C19.1032 48.1028 18.7439 48.3162 18.5026 48.639C18.2612 48.9619 18.1576 49.3677 18.2145 49.7671C18.2714 50.1666 18.4841 50.527 18.8059 50.7692L24.8726 55.3337C25.1646 55.5535 25.5259 55.6602 25.8901 55.6342C26.2543 55.6082 26.5969 55.4514 26.855 55.1924L37.4717 44.5418C37.7561 44.2564 37.9159 43.8694 37.9159 43.4659C37.9159 43.0624 37.7561 42.6753 37.4717 42.39C37.1873 42.1046 36.8015 41.9443 36.3992 41.9443C35.997 41.9443 35.6112 42.1046 35.3268 42.39Z" fill="#085F63"/>
</svg>
